# xmcd
#
# Track frame offsets: 
#        150
#        15338
#        31249
#        46437
#        61958
#        75710
#        90020
#        102687
#        117526
#        133703
#        149058
#        161654
#
# Disc length: 2410 seconds
#
# Revision: 0
# Processed by: cddbd v1.5.2PL0 Copyright (c) Steve Scherf et al.
# Submitted via: ExactAudioCopy v0.99pb3
#
DISCID=9e09680c
DTITLE=Duane Schurb - Best Of Duane Schurb Vol. 3
DYEAR=2007
DGENRE=Pop
TTITLE0=The Ultimate Crime
TTITLE1=I Don't Know What's Wrong
TTITLE2=My Little Woman
TTITLE3=Love Changes
TTITLE4=Come Back To Me
TTITLE5=We Made A Vow
TTITLE6=I'm Lost Without You
TTITLE7=Walkin and Talkin 
TTITLE8=Family Plan
TTITLE9=Turn Around
TTITLE10=Don't Talk To The Hand
TTITLE11=Another Legend
EXTD=
EXTT0=
EXTT1=
EXTT2=
EXTT3=
EXTT4=
EXTT5=
EXTT6=
EXTT7=
EXTT8=
EXTT9=
EXTT10=
EXTT11=
PLAYORDER=
